<?xml version="1.0" standalone="no"?>
<!DOCTYPE svg PUBLIC "-//W3C//DTD SVG 20010904//EN"
 "http://www.w3.org/TR/2001/REC-SVG-20010904/DTD/svg10.dtd">
<svg version="1.0" xmlns="http://www.w3.org/2000/svg"
 width="500.000000pt" height="500.000000pt" viewBox="0 0 500.000000 500.000000"
 preserveAspectRatio="xMidYMid meet">

<g transform="translate(0.000000,500.000000) scale(0.100000,-0.100000)"
fill="#000000" stroke="none">
<path d="M231 4983 c-19 -10 -44 -31 -55 -46 -21 -28 -21 -40 -24 -565 -2
-496 -1 -540 15 -571 10 -19 31 -44 46 -55 27 -20 43 -21 308 -24 227 -2 291
0 340 13 255 65 375 354 243 583 l-25 42 25 43 c61 106 71 233 26 352 -32 83
-131 182 -215 216 -58 23 -71 24 -355 27 -267 2 -298 1 -329 -15z m610 -311
c42 -46 40 -93 -5 -138 -19 -19 -43 -34 -54 -34 -26 0 -78 -44 -97 -81 -40
-76 6 -169 97 -198 21 -7 49 -26 64 -44 22 -26 25 -38 21 -71 -3 -24 -16 -49
-31 -65 -26 -26 -27 -26 -211 -29 l-185 -3 0 351 0 351 186 -3 186 -3 29 -33z"/>
<path d="M1540 4782 c-101 -50 -107 -201 -9 -254 32 -17 78 -18 1001 -16 l966
3 27 25 c82 77 70 195 -25 242 -33 17 -100 18 -980 18 -880 0 -947 -1 -980
-18z"/>
<path d="M1525 4190 c-86 -57 -85 -190 2 -247 25 -17 72 -18 708 -21 461 -2
692 0 717 8 45 13 93 66 102 114 9 50 -22 119 -66 146 -32 19 -48 20 -733 20
-680 0 -701 -1 -730 -20z"/>
<path d="M1558 3070 c-248 -30 -449 -172 -560 -397 -24 -48 -106 -235 -183
-414 l-140 -327 -100 -4 c-83 -3 -109 -9 -151 -30 -59 -31 -108 -83 -138 -147
-20 -45 -21 -62 -24 -574 -3 -537 0 -602 35 -675 24 -50 80 -104 139 -133 45
-22 62 -24 234 -27 l185 -4 29 -61 c64 -137 212 -246 365 -270 200 -30 410 81
501 266 l33 67 776 0 776 0 38 -75 c95 -184 301 -290 499 -257 152 26 285 122
355 257 l38 75 86 0 c111 0 178 13 257 50 113 53 205 172 233 300 7 32 9 138
7 288 -4 212 -7 244 -27 307 -44 135 -98 223 -193 313 -65 62 -129 96 -410
217 l-262 114 -161 373 c-88 205 -172 394 -187 419 -73 124 -184 225 -315 285
-148 69 -119 67 -933 70 -404 1 -765 -2 -802 -6z m612 -715 l0 -425 -585 0
c-410 0 -585 3 -585 11 0 12 221 532 258 604 36 72 74 117 135 159 101 70 133
75 475 75 l302 1 0 -425z m951 406 c125 -39 207 -118 273 -263 47 -102 236
-550 236 -560 0 -4 -263 -8 -585 -8 l-585 0 0 425 0 425 299 0 c268 0 306 -2
362 -19z m1018 -1228 c251 -111 306 -145 350 -217 12 -18 21 -36 21 -40 0 -3
-21 -6 -47 -6 -92 0 -153 -52 -160 -137 -3 -36 1 -56 16 -81 35 -54 75 -72
164 -72 l77 0 0 -116 c0 -101 -3 -121 -22 -155 -32 -58 -84 -79 -190 -79 l-85
0 -33 66 c-45 92 -126 171 -224 220 l-80 39 -126 0 -126 0 -80 -39 c-98 -49
-179 -128 -224 -220 l-33 -66 -779 0 -779 0 -16 38 c-44 106 -143 205 -258
259 -81 37 -238 45 -331 15 -122 -38 -229 -131 -287 -250 l-31 -62 -148 0
-148 0 0 175 0 175 68 0 c117 0 177 49 177 143 0 97 -61 147 -179 147 l-66 0
0 185 0 185 1668 0 1667 0 244 -107z m-2746 -877 c43 -18 94 -77 107 -125 31
-116 -62 -241 -180 -241 -70 0 -155 59 -179 123 -25 66 -4 165 45 208 55 48
142 63 207 35z m2495 -7 c138 -67 131 -275 -13 -340 -129 -59 -275 45 -263
187 11 136 150 213 276 153z"/>
</g>
</svg>
